<svg width="800" height="799" viewBox="0 0 800 799" fill="none" xmlns="http://www.w3.org/2000/svg">
<path d="M186.219 256.488H25.6181C18.4903 256.488 12.7148 262.266 12.7148 269.391V785.334C12.7148 792.462 18.4903 798.237 25.6181 798.237H186.219C193.347 798.237 199.123 792.462 199.123 785.334V269.391C199.123 262.266 193.347 256.488 186.219 256.488Z" fill="#8FBFEF"/>
<path d="M105.977 0C47.5407 0 0 47.489 0 105.861C0 164.258 47.5407 211.765 105.977 211.765C164.366 211.765 211.868 164.255 211.868 105.861C211.871 47.489 164.366 0 105.977 0Z" fill="#8FBFEF"/>
<path d="M594.719 243.665C530.216 243.665 482.534 271.394 453.612 302.901V269.391C453.612 262.266 447.837 256.488 440.709 256.488H286.905C279.777 256.488 274.002 262.266 274.002 269.391V785.334C274.002 792.462 279.777 798.237 286.905 798.237H447.155C454.283 798.237 460.059 792.462 460.059 785.334V530.062C460.059 444.041 483.424 410.529 543.388 410.529C608.694 410.529 613.883 464.253 613.883 534.488V785.337C613.883 792.465 619.659 798.24 626.786 798.24H787.096C794.224 798.24 799.999 792.465 799.999 785.337V502.333C799.999 374.423 775.61 243.665 594.719 243.665Z" fill="#8FBFEF"/>
</svg>
