<svg width="1343" height="232" viewBox="0 0 1343 232" fill="none" xmlns="http://www.w3.org/2000/svg">
<path d="M935 62.5L934.514 62.382L935 62.5ZM877.5 103.5L877.536 103.001L877.5 103.5ZM1342.94 3.23098C1343.07 2.98607 1342.98 2.68412 1342.73 2.55655L1338.74 0.477702C1338.5 0.350134 1338.19 0.445258 1338.07 0.690168C1337.94 0.935078 1338.03 1.23703 1338.28 1.3646L1341.83 3.21247L1339.98 6.76006C1339.85 7.00497 1339.95 7.30692 1340.19 7.43449C1340.44 7.56206 1340.74 7.46693 1340.86 7.22202L1342.94 3.23098ZM0.563209 231.996C154.233 212.412 385.365 180.461 579.332 148.256C676.314 132.153 764.013 115.986 828.096 101.267C860.136 93.9082 886.286 86.9084 904.745 80.4561C913.973 77.2308 921.298 74.1357 926.481 71.1919C929.072 69.7202 931.144 68.2774 932.653 66.8634C934.158 65.4539 935.141 64.0391 935.486 62.6179L934.514 62.382C934.234 63.5358 933.406 64.7887 931.97 66.1336C930.539 67.4739 928.54 68.8722 925.987 70.3224C920.88 73.2225 913.621 76.2945 904.415 79.5122C886.009 85.946 859.901 92.936 827.872 100.292C763.82 115.004 676.145 131.168 579.168 147.269C385.218 179.472 154.1 211.421 0.436791 231.004L0.563209 231.996ZM935.486 62.6179C936.282 59.3391 936.287 56.5553 935.585 54.2354C934.882 51.9078 933.478 50.0838 931.524 48.7172C927.644 46.0033 921.609 45.1006 914.528 45.4851C900.335 46.2556 881.532 52.2217 866.086 60.054C858.36 63.9719 851.45 68.3689 846.364 72.8372C841.301 77.2862 837.955 81.8848 837.541 86.2181C837.332 88.4066 837.874 90.5057 839.284 92.4411C840.686 94.3661 842.931 96.1087 846.1 97.6359C852.431 100.687 862.57 102.935 877.464 103.999L877.536 103.001C862.68 101.94 852.694 99.7034 846.534 96.7351C843.458 95.2525 841.367 93.6016 840.092 91.8523C838.826 90.1134 838.351 88.2574 838.537 86.3131C838.912 82.3807 842 78.0028 847.024 73.5885C852.027 69.1935 858.858 64.8405 866.539 60.9459C881.906 53.1533 900.571 47.2443 914.582 46.4836C921.602 46.1025 927.353 47.0201 930.951 49.5367C932.736 50.7853 933.995 52.429 934.628 54.5248C935.264 56.6283 935.281 59.2233 934.514 62.382L935.486 62.6179ZM877.464 103.999C901.325 105.703 935.126 102.534 974.179 96.2687C1013.24 90.0014 1057.59 80.6297 1102.57 69.9114C1192.51 48.4747 1284.97 21.6463 1342.65 3.4769L1342.35 2.5231C1284.69 20.687 1192.25 47.5086 1102.33 68.9386C1057.37 79.6536 1013.05 89.0194 974.021 95.2813C934.982 101.545 901.275 104.697 877.536 103.001L877.464 103.999Z" fill="white"/>
</svg>
